<?xml version="1.0" encoding="UTF-8" standalone="no"?>
<!DOCTYPE svg PUBLIC "-//W3C//DTD SVG 1.1//EN"
 "http://www.w3.org/Graphics/SVG/1.1/DTD/svg11.dtd">
<!-- Generated by graphviz version 2.40.1 (20161225.0304)
 -->
<!-- Title: graphe1 Pages: 1 -->
<svg width="188pt" height="188pt"
 viewBox="0.00 0.00 188.00 188.00" xmlns="http://www.w3.org/2000/svg" xmlns:xlink="http://www.w3.org/1999/xlink">
<g id="graph0" class="graph" transform="scale(1 1) rotate(0) translate(4 184)">
<title>graphe1</title>
<polygon fill="#ffffff" stroke="transparent" points="-4,4 -4,-184 184,-184 184,4 -4,4"/>
<!-- A -->
<g id="node1" class="node">
<title>A</title>
<ellipse fill="#ffffff" stroke="#000000" cx="27" cy="-162" rx="27" ry="18"/>
<text text-anchor="middle" x="27" y="-158.3" font-family="Times,serif" font-size="14.00" fill="#000000">A</text>
</g>
<!-- B -->
<g id="node2" class="node">
<title>B</title>
<ellipse fill="#ffffff" stroke="#000000" cx="27" cy="-90" rx="27" ry="18"/>
<text text-anchor="middle" x="27" y="-86.3" font-family="Times,serif" font-size="14.00" fill="#000000">B</text>
</g>
<!-- A&#45;&#45;B -->
<g id="edge1" class="edge">
<title>A&#45;&#45;B</title>
<path fill="none" stroke="#000000" d="M21.0843,-144.2022C19.9651,-133.0419 19.972,-118.7143 21.105,-107.593"/>
</g>
<!-- A&#45;&#45;B -->
<g id="edge2" class="edge">
<title>A&#45;&#45;B</title>
<path fill="none" stroke="#000000" d="M32.9157,-144.2022C34.0349,-133.0419 34.028,-118.7143 32.895,-107.593"/>
</g>
<!-- C -->
<g id="node3" class="node">
<title>C</title>
<ellipse fill="#ffffff" stroke="#000000" cx="117" cy="-90" rx="27" ry="18"/>
<text text-anchor="middle" x="117" y="-86.3" font-family="Times,serif" font-size="14.00" fill="#000000">C</text>
</g>
<!-- A&#45;&#45;C -->
<g id="edge3" class="edge">
<title>A&#45;&#45;C</title>
<path fill="none" stroke="#000000" d="M44.3529,-148.1177C60.2899,-135.3681 83.7803,-116.5758 99.7004,-103.8397"/>
</g>
<!-- B&#45;&#45;B -->
<g id="edge4" class="edge">
<title>B&#45;&#45;B</title>
<path fill="none" stroke="#000000" d="M46.895,-102.4321C59.688,-105.6753 72,-101.5313 72,-90 72,-78.4688 59.688,-74.3247 46.895,-77.5679"/>
</g>
<!-- D -->
<g id="node4" class="node">
<title>D</title>
<ellipse fill="#ffffff" stroke="#000000" cx="117" cy="-18" rx="27" ry="18"/>
<text text-anchor="middle" x="117" y="-14.3" font-family="Times,serif" font-size="14.00" fill="#000000">D</text>
</g>
<!-- C&#45;&#45;D -->
<g id="edge5" class="edge">
<title>C&#45;&#45;D</title>
<path fill="none" stroke="#000000" d="M117,-71.8314C117,-61 117,-47.2876 117,-36.4133"/>
</g>
<!-- D&#45;&#45;D -->
<g id="edge6" class="edge">
<title>D&#45;&#45;D</title>
<path fill="none" stroke="#000000" d="M142.4435,-24.6907C153.0278,-25.1521 162,-22.9219 162,-18 162,-13.0781 153.0278,-10.8479 142.4435,-11.3093"/>
</g>
<!-- D&#45;&#45;D -->
<g id="edge7" class="edge">
<title>D&#45;&#45;D</title>
<path fill="none" stroke="#000000" d="M138.6268,-29.0075C158.5379,-34.5363 180,-30.8672 180,-18 180,-5.1328 158.5379,-1.4637 138.6268,-6.9925"/>
</g>
</g>
</svg>
