<?xml version="1.0" encoding="UTF-8" standalone="no"?>
<!DOCTYPE svg PUBLIC "-//W3C//DTD SVG 1.1//EN"
 "http://www.w3.org/Graphics/SVG/1.1/DTD/svg11.dtd">
<!-- Generated by graphviz version 2.40.1 (20161225.0304)
 -->
<!-- Title: graphe1 Pages: 1 -->
<svg width="204pt" height="212pt"
 viewBox="0.00 0.00 204.00 212.00" xmlns="http://www.w3.org/2000/svg" xmlns:xlink="http://www.w3.org/1999/xlink">
<g id="graph0" class="graph" transform="scale(1 1) rotate(0) translate(4 208)">
<title>graphe1</title>
<polygon fill="#ffffff" stroke="transparent" points="-4,4 -4,-208 200,-208 200,4 -4,4"/>
<!-- A -->
<g id="node1" class="node">
<title>A</title>
<ellipse fill="#ffffff" stroke="#000000" cx="31" cy="-182" rx="27" ry="18"/>
<ellipse fill="none" stroke="#000000" cx="31" cy="-182" rx="31" ry="22"/>
<text text-anchor="middle" x="31" y="-178.3" font-family="Times,serif" font-size="14.00" fill="#000000">A</text>
</g>
<!-- B -->
<g id="node2" class="node">
<title>B</title>
<ellipse fill="#ffffff" stroke="#000000" cx="31" cy="-102" rx="27" ry="18"/>
<ellipse fill="none" stroke="#000000" cx="31" cy="-102" rx="31" ry="22"/>
<text text-anchor="middle" x="31" y="-98.3" font-family="Times,serif" font-size="14.00" fill="#000000">B</text>
</g>
<!-- A&#45;&#45;B -->
<g id="edge1" class="edge">
<title>A&#45;&#45;B</title>
<path fill="none" stroke="#000000" d="M24.9092,-160.1396C24.0296,-148.8515 24.0303,-135.1182 24.9112,-123.8339"/>
</g>
<!-- A&#45;&#45;B -->
<g id="edge2" class="edge">
<title>A&#45;&#45;B</title>
<path fill="none" stroke="#000000" d="M37.0908,-160.1396C37.9704,-148.8515 37.9697,-135.1182 37.0888,-123.8339"/>
</g>
<!-- C -->
<g id="node3" class="node">
<title>C</title>
<ellipse fill="#ffffff" stroke="#000000" cx="129" cy="-102" rx="27" ry="18"/>
<ellipse fill="none" stroke="#000000" cx="129" cy="-102" rx="31" ry="22"/>
<text text-anchor="middle" x="129" y="-98.3" font-family="Times,serif" font-size="14.00" fill="#000000">C</text>
</g>
<!-- A&#45;&#45;C -->
<g id="edge3" class="edge">
<title>A&#45;&#45;C</title>
<path fill="none" stroke="#000000" d="M51.7833,-165.0341C68.5266,-151.3661 91.9376,-132.255 108.5827,-118.6672"/>
</g>
<!-- B&#45;&#45;B -->
<g id="edge4" class="edge">
<title>B&#45;&#45;B</title>
<path fill="none" stroke="#000000" d="M54.6968,-116.2822C67.8696,-118.9482 80,-114.1875 80,-102 80,-89.8125 67.8696,-85.0518 54.6968,-87.7178"/>
</g>
<!-- D -->
<g id="node4" class="node">
<title>D</title>
<ellipse fill="#ffffff" stroke="#000000" cx="129" cy="-22" rx="27" ry="18"/>
<ellipse fill="none" stroke="#000000" cx="129" cy="-22" rx="31" ry="22"/>
<text text-anchor="middle" x="129" y="-18.3" font-family="Times,serif" font-size="14.00" fill="#000000">D</text>
</g>
<!-- C&#45;&#45;D -->
<g id="edge5" class="edge">
<title>C&#45;&#45;D</title>
<path fill="none" stroke="#000000" d="M129,-79.7155C129,-68.6196 129,-55.2445 129,-44.165"/>
</g>
<!-- D&#45;&#45;D -->
<g id="edge6" class="edge">
<title>D&#45;&#45;D</title>
<path fill="none" stroke="#000000" d="M158.1766,-29.4835C169.0498,-29.7289 178,-27.2344 178,-22 178,-16.7656 169.0498,-14.2711 158.1766,-14.5165"/>
</g>
<!-- D&#45;&#45;D -->
<g id="edge7" class="edge">
<title>D&#45;&#45;D</title>
<path fill="none" stroke="#000000" d="M154.4358,-34.8906C174.888,-40.0469 196,-35.75 196,-22 196,-8.25 174.888,-3.9531 154.4358,-9.1094"/>
</g>
</g>
</svg>
