<?xml version="1.0" encoding="UTF-8" standalone="no"?>
<!DOCTYPE svg PUBLIC "-//W3C//DTD SVG 1.1//EN"
 "http://www.w3.org/Graphics/SVG/1.1/DTD/svg11.dtd">
<!-- Generated by graphviz version 2.40.1 (20161225.0304)
 -->
<!-- Title: tgv Pages: 1 -->
<svg width="568pt" height="487pt"
 viewBox="0.00 0.00 568.00 487.00" xmlns="http://www.w3.org/2000/svg" xmlns:xlink="http://www.w3.org/1999/xlink">
<g id="graph0" class="graph" transform="scale(1 1) rotate(0) translate(4 483)">
<title>tgv</title>
<polygon fill="#ffffff" stroke="transparent" points="-4,4 -4,-483 564,-483 564,4 -4,4"/>
<!-- Lille -->
<g id="node1" class="node">
<title>Lille</title>
<ellipse fill="#ffff00" stroke="#000000" cx="271" cy="-461" rx="27.0966" ry="18"/>
<text text-anchor="middle" x="271" y="-457.3" font-family="Times,serif" font-size="14.00" fill="#000000">Lille</text>
</g>
<!-- Paris -->
<g id="node2" class="node">
<title>Paris</title>
<ellipse fill="#ffff00" stroke="#000000" cx="271" cy="-374" rx="28.6953" ry="18"/>
<text text-anchor="middle" x="271" y="-370.3" font-family="Times,serif" font-size="14.00" fill="#000000">Paris</text>
</g>
<!-- Lille&#45;&#45;Paris -->
<g id="edge1" class="edge">
<title>Lille&#45;&#45;Paris</title>
<path fill="none" stroke="#000000" d="M271,-442.9735C271,-428.0422 271,-406.9283 271,-392.0034"/>
<text text-anchor="middle" x="285" y="-413.8" font-family="Times,serif" font-size="14.00" fill="#000000">1h00</text>
</g>
<!-- Nantes -->
<g id="node3" class="node">
<title>Nantes</title>
<ellipse fill="#ffffff" stroke="#000000" cx="119" cy="-287" rx="35.194" ry="18"/>
<text text-anchor="middle" x="119" y="-283.3" font-family="Times,serif" font-size="14.00" fill="#000000">Nantes</text>
</g>
<!-- Lille&#45;&#45;Nantes -->
<g id="edge2" class="edge">
<title>Lille&#45;&#45;Nantes</title>
<path fill="none" stroke="#000000" d="M243.8628,-457.4C218.2359,-452.9993 179.5767,-443.6948 151,-425 134.9037,-414.4698 129.9707,-409.9272 123,-392 111.8272,-363.2661 113.6628,-326.7103 116.2008,-305.1823"/>
<text text-anchor="middle" x="137" y="-370.3" font-family="Times,serif" font-size="14.00" fill="#000000">4h10</text>
</g>
<!-- Lyon -->
<g id="node4" class="node">
<title>Lyon</title>
<ellipse fill="#ffffff" stroke="#000000" cx="188" cy="-196" rx="29.4667" ry="18"/>
<ellipse fill="none" stroke="#000000" cx="188" cy="-196" rx="33.4967" ry="22"/>
<text text-anchor="middle" x="188" y="-192.3" font-family="Times,serif" font-size="14.00" fill="#000000">Lyon</text>
</g>
<!-- Lille&#45;&#45;Lyon -->
<g id="edge3" class="edge">
<title>Lille&#45;&#45;Lyon</title>
<path fill="none" stroke="#000000" d="M252.7001,-447.6115C226.7033,-427.321 180.2154,-386.0197 162,-338 157.7999,-326.9278 173.9731,-254.806 182.7264,-217.8131"/>
<text text-anchor="middle" x="176" y="-326.8" font-family="Times,serif" font-size="14.00" fill="#000000">2h50</text>
</g>
<!-- Bordeaux -->
<g id="node5" class="node">
<title>Bordeaux</title>
<ellipse fill="#ffffff" stroke="#000000" cx="395" cy="-287" rx="44.6926" ry="18"/>
<text text-anchor="middle" x="395" y="-283.3" font-family="Times,serif" font-size="14.00" fill="#000000">Bordeaux</text>
</g>
<!-- Lille&#45;&#45;Bordeaux -->
<g id="edge4" class="edge">
<title>Lille&#45;&#45;Bordeaux</title>
<path fill="none" stroke="#000000" d="M288.6191,-447.1705C313.8855,-426.3307 360.0016,-384.3518 384,-338 389.2473,-327.865 391.994,-315.352 393.4305,-305.257"/>
<text text-anchor="middle" x="386" y="-370.3" font-family="Times,serif" font-size="14.00" fill="#000000">5h00</text>
</g>
<!-- Toulouse -->
<g id="node6" class="node">
<title>Toulouse</title>
<ellipse fill="#ffff00" stroke="#000000" cx="360" cy="-105" rx="43.5923" ry="18"/>
<text text-anchor="middle" x="360" y="-101.3" font-family="Times,serif" font-size="14.00" fill="#000000">Toulouse</text>
</g>
<!-- Lille&#45;&#45;Toulouse -->
<g id="edge5" class="edge">
<title>Lille&#45;&#45;Toulouse</title>
<path fill="none" stroke="#000000" d="M292.5738,-449.88C297.2956,-447.5398 302.2905,-445.1351 307,-443 380.8915,-409.5012 476,-455.1303 476,-374 476,-374 476,-374 476,-196 476,-154.406 429.2604,-128.9505 395.1186,-115.9045"/>
<text text-anchor="middle" x="490" y="-283.3" font-family="Times,serif" font-size="14.00" fill="#000000">8h20</text>
</g>
<!-- Marseille -->
<g id="node7" class="node">
<title>Marseille</title>
<ellipse fill="#ffffff" stroke="#000000" cx="80" cy="-105" rx="44.393" ry="18"/>
<text text-anchor="middle" x="80" y="-101.3" font-family="Times,serif" font-size="14.00" fill="#000000">Marseille</text>
</g>
<!-- Lille&#45;&#45;Marseille -->
<g id="edge6" class="edge">
<title>Lille&#45;&#45;Marseille</title>
<path fill="none" stroke="#000000" d="M244.0247,-458.1646C175.4785,-450.2157 0,-424.896 0,-374 0,-374 0,-374 0,-196 0,-162.5534 30.8606,-135.5498 54.2471,-119.8881"/>
<text text-anchor="middle" x="14" y="-283.3" font-family="Times,serif" font-size="14.00" fill="#000000">4h30</text>
</g>
<!-- Montpellier -->
<g id="node8" class="node">
<title>Montpellier</title>
<ellipse fill="#ffffff" stroke="#000000" cx="322" cy="-18" rx="52.7911" ry="18"/>
<text text-anchor="middle" x="322" y="-14.3" font-family="Times,serif" font-size="14.00" fill="#000000">Montpellier</text>
</g>
<!-- Lille&#45;&#45;Montpellier -->
<g id="edge7" class="edge">
<title>Lille&#45;&#45;Montpellier</title>
<path fill="none" stroke="#000000" d="M291.8169,-449.0669C296.6701,-446.7193 301.9105,-444.5167 307,-443 407.2401,-413.1275 532,-478.5966 532,-374 532,-374 532,-374 532,-105 532,-69.6311 429.0426,-41.1387 367.3083,-27.2334"/>
<text text-anchor="middle" x="546" y="-239.8" font-family="Times,serif" font-size="14.00" fill="#000000">4h40</text>
</g>
<!-- Paris&#45;&#45;Nantes -->
<g id="edge8" class="edge">
<title>Paris&#45;&#45;Nantes</title>
<path fill="none" stroke="#000000" d="M250.9975,-360.6532C229.1744,-346.1066 196.9284,-324.6622 194,-323 178.4246,-314.1593 160.3414,-305.4368 145.8342,-298.7921"/>
<text text-anchor="middle" x="230" y="-326.8" font-family="Times,serif" font-size="14.00" fill="#000000">2h00</text>
</g>
<!-- Paris&#45;&#45;Lyon -->
<g id="edge9" class="edge">
<title>Paris&#45;&#45;Lyon</title>
<path fill="none" stroke="#000000" d="M262.8905,-356.6085C247.5939,-323.8038 214.53,-252.8957 197.9309,-217.2976"/>
<text text-anchor="middle" x="251" y="-283.3" font-family="Times,serif" font-size="14.00" fill="#000000">1h55</text>
</g>
<!-- Paris&#45;&#45;Bordeaux -->
<g id="edge10" class="edge">
<title>Paris&#45;&#45;Bordeaux</title>
<path fill="none" stroke="#000000" d="M293.0522,-362.3411C305.1413,-355.6685 320.2227,-346.8774 333,-338 348.3379,-327.3436 364.6061,-313.8698 376.6283,-303.4478"/>
<text text-anchor="middle" x="366" y="-326.8" font-family="Times,serif" font-size="14.00" fill="#000000">2h10</text>
</g>
<!-- Paris&#45;&#45;Toulouse -->
<g id="edge13" class="edge">
<title>Paris&#45;&#45;Toulouse</title>
<path fill="none" stroke="#000000" d="M285.0594,-358.018C289.7233,-352.0594 294.5893,-345.0287 298,-338 334.4575,-262.8698 351.7454,-163.3353 357.6005,-123.0598"/>
<text text-anchor="middle" x="348" y="-239.8" font-family="Times,serif" font-size="14.00" fill="#000000">5h14</text>
</g>
<!-- Paris&#45;&#45;Marseille -->
<g id="edge11" class="edge">
<title>Paris&#45;&#45;Marseille</title>
<path fill="none" stroke="#000000" d="M243.6254,-368.5178C194.4195,-358.034 94.335,-333.6231 75,-305 36.699,-248.2999 60.3065,-160.4291 73.2225,-122.9379"/>
<text text-anchor="middle" x="70" y="-239.8" font-family="Times,serif" font-size="14.00" fill="#000000">2h56</text>
</g>
<!-- Paris&#45;&#45;Montpellier -->
<g id="edge12" class="edge">
<title>Paris&#45;&#45;Montpellier</title>
<path fill="none" stroke="#000000" d="M275.2567,-356.1212C279.048,-338.6143 284,-311.1295 284,-287 284,-287 284,-287 284,-105 284,-79.2879 298.1108,-52.6061 309.1349,-35.6842"/>
<text text-anchor="middle" x="298" y="-192.3" font-family="Times,serif" font-size="14.00" fill="#000000">3h15</text>
</g>
<!-- Nantes&#45;&#45;Lyon -->
<g id="edge14" class="edge">
<title>Nantes&#45;&#45;Lyon</title>
<path fill="none" stroke="#000000" d="M124.0596,-268.9096C127.4962,-258.6295 132.7462,-245.8795 140,-236 146.6768,-226.9065 155.8505,-218.5999 164.3906,-211.9416"/>
<text text-anchor="middle" x="154" y="-239.8" font-family="Times,serif" font-size="14.00" fill="#000000">4h20</text>
</g>
<!-- Nantes&#45;&#45;Marseille -->
<g id="edge15" class="edge">
<title>Nantes&#45;&#45;Marseille</title>
<path fill="none" stroke="#000000" d="M115.1179,-268.8838C107.6424,-233.998 91.3295,-157.8709 83.8664,-123.043"/>
<text text-anchor="middle" x="119" y="-192.3" font-family="Times,serif" font-size="14.00" fill="#000000">6h20</text>
</g>
<!-- Lyon&#45;&#45;Toulouse -->
<g id="edge16" class="edge">
<title>Lyon&#45;&#45;Toulouse</title>
<path fill="none" stroke="#000000" d="M214.1231,-182.1791C246.2634,-165.1746 300.5539,-136.4511 333.063,-119.2516"/>
<text text-anchor="middle" x="303" y="-144.8" font-family="Times,serif" font-size="14.00" fill="#000000">4h30</text>
</g>
<!-- Lyon&#45;&#45;Marseille -->
<g id="edge17" class="edge">
<title>Lyon&#45;&#45;Marseille</title>
<path fill="none" stroke="#000000" d="M167.4318,-178.6694C147.8473,-162.1676 118.5904,-137.516 99.4018,-121.3478"/>
<text text-anchor="middle" x="154" y="-144.8" font-family="Times,serif" font-size="14.00" fill="#000000">1h20</text>
</g>
<!-- Lyon&#45;&#45;Montpellier -->
<g id="edge18" class="edge">
<title>Lyon&#45;&#45;Montpellier</title>
<path fill="none" stroke="#000000" d="M195.5457,-174.4765C207.1974,-144.0121 232.2446,-88.2231 270,-54 278.054,-46.6995 287.6554,-39.6616 296.4029,-33.7751"/>
<text text-anchor="middle" x="254" y="-101.3" font-family="Times,serif" font-size="14.00" fill="#000000">1h45</text>
</g>
<!-- Bordeaux&#45;&#45;Toulouse -->
<g id="edge19" class="edge">
<title>Bordeaux&#45;&#45;Toulouse</title>
<path fill="none" stroke="#000000" d="M393.7185,-268.7544C391.4595,-240.8535 385.8408,-186.0775 374,-141 372.4326,-135.0329 370.1837,-128.7053 367.9455,-123.0469"/>
<text text-anchor="middle" x="402" y="-192.3" font-family="Times,serif" font-size="14.00" fill="#000000">2h10</text>
</g>
<!-- Toulouse&#45;&#45;Montpellier -->
<g id="edge20" class="edge">
<title>Toulouse&#45;&#45;Montpellier</title>
<path fill="none" stroke="#000000" d="M352.1264,-86.9735C345.6046,-72.0422 336.3825,-50.9283 329.8635,-36.0034"/>
<text text-anchor="middle" x="357" y="-57.8" font-family="Times,serif" font-size="14.00" fill="#000000">2h16</text>
</g>
<!-- Strasbourg -->
<g id="node9" class="node">
<title>Strasbourg</title>
<ellipse fill="#ffffff" stroke="#000000" cx="365" cy="-461" rx="48.9926" ry="18"/>
<text text-anchor="middle" x="365" y="-457.3" font-family="Times,serif" font-size="14.00" fill="#000000">Strasbourg</text>
</g>
</g>
</svg>
