<?xml version="1.0" encoding="UTF-8" standalone="no"?>
<!DOCTYPE svg PUBLIC "-//W3C//DTD SVG 1.1//EN"
 "http://www.w3.org/Graphics/SVG/1.1/DTD/svg11.dtd">
<!-- Generated by graphviz version 2.40.1 (20161225.0304)
 -->
<!-- Title: tgv Pages: 1 -->
<svg width="584pt" height="527pt"
 viewBox="0.00 0.00 584.00 527.00" xmlns="http://www.w3.org/2000/svg" xmlns:xlink="http://www.w3.org/1999/xlink">
<g id="graph0" class="graph" transform="scale(1 1) rotate(0) translate(4 523)">
<title>tgv</title>
<polygon fill="#ffffff" stroke="transparent" points="-4,4 -4,-523 580,-523 580,4 -4,4"/>
<!-- Lille -->
<g id="node1" class="node">
<title>Lille</title>
<ellipse fill="#ffff00" stroke="#000000" cx="279" cy="-497" rx="27.1222" ry="18"/>
<ellipse fill="none" stroke="#000000" cx="279" cy="-497" rx="31.0965" ry="22"/>
<text text-anchor="middle" x="279" y="-493.3" font-family="Times,serif" font-size="14.00" fill="#000000">Lille</text>
</g>
<!-- Paris -->
<g id="node2" class="node">
<title>Paris</title>
<ellipse fill="#ffff00" stroke="#000000" cx="279" cy="-402" rx="28.6832" ry="18"/>
<ellipse fill="none" stroke="#000000" cx="279" cy="-402" rx="32.6952" ry="22"/>
<text text-anchor="middle" x="279" y="-398.3" font-family="Times,serif" font-size="14.00" fill="#000000">Paris</text>
</g>
<!-- Lille&#45;&#45;Paris -->
<g id="edge1" class="edge">
<title>Lille&#45;&#45;Paris</title>
<path fill="none" stroke="#000000" d="M279,-474.9663C279,-459.7285 279,-439.5264 279,-424.2433"/>
<text text-anchor="middle" x="293" y="-445.8" font-family="Times,serif" font-size="14.00" fill="#000000">1h00</text>
</g>
<!-- Nantes -->
<g id="node3" class="node">
<title>Nantes</title>
<ellipse fill="#ffffff" stroke="#000000" cx="123" cy="-307" rx="35.1841" ry="18"/>
<ellipse fill="none" stroke="#000000" cx="123" cy="-307" rx="39.194" ry="22"/>
<text text-anchor="middle" x="123" y="-303.3" font-family="Times,serif" font-size="14.00" fill="#000000">Nantes</text>
</g>
<!-- Lille&#45;&#45;Nantes -->
<g id="edge2" class="edge">
<title>Lille&#45;&#45;Nantes</title>
<path fill="none" stroke="#000000" d="M247.9728,-493.3806C210.3346,-487.0135 149.6038,-469.7861 131,-424 118.3542,-392.8771 118.6863,-353.2694 120.5202,-329.0434"/>
<text text-anchor="middle" x="145" y="-398.3" font-family="Times,serif" font-size="14.00" fill="#000000">4h10</text>
</g>
<!-- Lyon -->
<g id="node4" class="node">
<title>Lyon</title>
<ellipse fill="#ffffff" stroke="#000000" cx="191" cy="-212" rx="29.4667" ry="18"/>
<ellipse fill="none" stroke="#000000" cx="191" cy="-212" rx="33.4967" ry="22"/>
<text text-anchor="middle" x="191" y="-208.3" font-family="Times,serif" font-size="14.00" fill="#000000">Lyon</text>
</g>
<!-- Lille&#45;&#45;Lyon -->
<g id="edge3" class="edge">
<title>Lille&#45;&#45;Lyon</title>
<path fill="none" stroke="#000000" d="M258.4428,-479.9352C232.0487,-456.5394 187.5612,-411.7049 170,-362 165.8281,-350.192 179.4938,-272.8958 186.7599,-234.1149"/>
<text text-anchor="middle" x="184" y="-350.8" font-family="Times,serif" font-size="14.00" fill="#000000">2h50</text>
</g>
<!-- Bordeaux -->
<g id="node5" class="node">
<title>Bordeaux</title>
<ellipse fill="#ffffff" stroke="#000000" cx="407" cy="-307" rx="44.7051" ry="18"/>
<ellipse fill="none" stroke="#000000" cx="407" cy="-307" rx="48.6925" ry="22"/>
<text text-anchor="middle" x="407" y="-303.3" font-family="Times,serif" font-size="14.00" fill="#000000">Bordeaux</text>
</g>
<!-- Lille&#45;&#45;Bordeaux -->
<g id="edge4" class="edge">
<title>Lille&#45;&#45;Bordeaux</title>
<path fill="none" stroke="#000000" d="M298.0404,-479.1459C322.8555,-454.8764 366.0213,-409.0769 391,-362 396.4534,-351.7222 400.2641,-339.3506 402.7945,-328.946"/>
<text text-anchor="middle" x="394" y="-398.3" font-family="Times,serif" font-size="14.00" fill="#000000">5h00</text>
</g>
<!-- Toulouse -->
<g id="node6" class="node">
<title>Toulouse</title>
<ellipse fill="#ffff00" stroke="#000000" cx="368" cy="-117" rx="43.5884" ry="18"/>
<ellipse fill="none" stroke="#000000" cx="368" cy="-117" rx="47.5923" ry="22"/>
<text text-anchor="middle" x="368" y="-113.3" font-family="Times,serif" font-size="14.00" fill="#000000">Toulouse</text>
</g>
<!-- Lille&#45;&#45;Toulouse -->
<g id="edge5" class="edge">
<title>Lille&#45;&#45;Toulouse</title>
<path fill="none" stroke="#000000" d="M303.3284,-483.0971C308.4535,-480.3161 313.8644,-477.4876 319,-475 394.1069,-438.62 492,-485.4538 492,-402 492,-402 492,-402 492,-212 492,-168.88 444.1661,-142.6762 407.9169,-129.0093"/>
<text text-anchor="middle" x="506" y="-303.3" font-family="Times,serif" font-size="14.00" fill="#000000">8h20</text>
</g>
<!-- Marseille -->
<g id="node7" class="node">
<title>Marseille</title>
<ellipse fill="#ffffff" stroke="#000000" cx="82" cy="-117" rx="44.3766" ry="18"/>
<ellipse fill="none" stroke="#000000" cx="82" cy="-117" rx="48.393" ry="22"/>
<text text-anchor="middle" x="82" y="-113.3" font-family="Times,serif" font-size="14.00" fill="#000000">Marseille</text>
</g>
<!-- Lille&#45;&#45;Marseille -->
<g id="edge6" class="edge">
<title>Lille&#45;&#45;Marseille</title>
<path fill="none" stroke="#000000" d="M248.0761,-493.1486C175.435,-483.2407 0,-453.936 0,-402 0,-402 0,-402 0,-212 0,-178.6654 29.2898,-151.2427 52.859,-134.5723"/>
<text text-anchor="middle" x="14" y="-303.3" font-family="Times,serif" font-size="14.00" fill="#000000">4h30</text>
</g>
<!-- Montpellier -->
<g id="node8" class="node">
<title>Montpellier</title>
<ellipse fill="#ffffff" stroke="#000000" cx="330" cy="-22" rx="52.7807" ry="18"/>
<ellipse fill="none" stroke="#000000" cx="330" cy="-22" rx="56.791" ry="22"/>
<text text-anchor="middle" x="330" y="-18.3" font-family="Times,serif" font-size="14.00" fill="#000000">Montpellier</text>
</g>
<!-- Lille&#45;&#45;Montpellier -->
<g id="edge7" class="edge">
<title>Lille&#45;&#45;Montpellier</title>
<path fill="none" stroke="#000000" d="M302.4439,-482.1882C307.7231,-479.4041 313.4196,-476.8045 319,-475 420.6418,-442.1322 548,-508.824 548,-402 548,-402 548,-402 548,-117 548,-80.4114 443.4921,-48.947 379.1953,-33.0513"/>
<text text-anchor="middle" x="562" y="-255.8" font-family="Times,serif" font-size="14.00" fill="#000000">4h40</text>
</g>
<!-- Paris&#45;&#45;Nantes -->
<g id="edge8" class="edge">
<title>Paris&#45;&#45;Nantes</title>
<path fill="none" stroke="#000000" d="M256.8566,-385.6155C238.1544,-371.8838 212.7502,-353.5095 202,-347 186.3513,-337.5243 168.1807,-328.2148 153.2141,-320.9646"/>
<text text-anchor="middle" x="236" y="-350.8" font-family="Times,serif" font-size="14.00" fill="#000000">2h00</text>
</g>
<!-- Paris&#45;&#45;Lyon -->
<g id="edge9" class="edge">
<title>Paris&#45;&#45;Lyon</title>
<path fill="none" stroke="#000000" d="M269.2462,-380.9407C252.3308,-344.4188 217.7432,-269.7411 200.7975,-233.1536"/>
<text text-anchor="middle" x="259" y="-303.3" font-family="Times,serif" font-size="14.00" fill="#000000">1h55</text>
</g>
<!-- Paris&#45;&#45;Bordeaux -->
<g id="edge10" class="edge">
<title>Paris&#45;&#45;Bordeaux</title>
<path fill="none" stroke="#000000" d="M303.3057,-387.2788C314.9358,-379.9942 328.924,-370.8763 341,-362 356.0226,-350.9579 372.1104,-337.5861 384.6414,-326.7923"/>
<text text-anchor="middle" x="373" y="-350.8" font-family="Times,serif" font-size="14.00" fill="#000000">2h10</text>
</g>
<!-- Paris&#45;&#45;Toulouse -->
<g id="edge13" class="edge">
<title>Paris&#45;&#45;Toulouse</title>
<path fill="none" stroke="#000000" d="M294.1684,-382.4473C298.4786,-376.1805 302.8513,-369.0357 306,-362 340.8601,-284.1069 358.5383,-183.15 365.0203,-139.1389"/>
<text text-anchor="middle" x="356" y="-255.8" font-family="Times,serif" font-size="14.00" fill="#000000">5h14</text>
</g>
<!-- Paris&#45;&#45;Marseille -->
<g id="edge11" class="edge">
<title>Paris&#45;&#45;Marseille</title>
<path fill="none" stroke="#000000" d="M247.7515,-395.4204C195.7746,-383.7695 95.2466,-357.9885 75,-329 34.4087,-270.8826 58.8209,-180.2964 73.4292,-138.933"/>
<text text-anchor="middle" x="68" y="-255.8" font-family="Times,serif" font-size="14.00" fill="#000000">2h56</text>
</g>
<!-- Paris&#45;&#45;Montpellier -->
<g id="edge12" class="edge">
<title>Paris&#45;&#45;Montpellier</title>
<path fill="none" stroke="#000000" d="M283.7669,-379.851C287.4771,-360.6719 292,-332.1366 292,-307 292,-307 292,-307 292,-117 292,-90.3547 305.0463,-62.3187 315.8502,-43.6696"/>
<text text-anchor="middle" x="306" y="-208.3" font-family="Times,serif" font-size="14.00" fill="#000000">3h15</text>
</g>
<!-- Nantes&#45;&#45;Lyon -->
<g id="edge14" class="edge">
<title>Nantes&#45;&#45;Lyon</title>
<path fill="none" stroke="#000000" d="M130.5497,-285.3069C134.7916,-274.7254 140.7064,-262.1289 148,-252 153.9579,-243.726 161.8225,-235.8126 169.1951,-229.2405"/>
<text text-anchor="middle" x="162" y="-255.8" font-family="Times,serif" font-size="14.00" fill="#000000">4h20</text>
</g>
<!-- Nantes&#45;&#45;Marseille -->
<g id="edge15" class="edge">
<title>Nantes&#45;&#45;Marseille</title>
<path fill="none" stroke="#000000" d="M118.2165,-284.8327C110.3163,-248.2217 94.6332,-175.5441 86.753,-139.0261"/>
<text text-anchor="middle" x="122" y="-208.3" font-family="Times,serif" font-size="14.00" fill="#000000">6h20</text>
</g>
<!-- Lyon&#45;&#45;Toulouse -->
<g id="edge16" class="edge">
<title>Lyon&#45;&#45;Toulouse</title>
<path fill="none" stroke="#000000" d="M217.117,-197.9824C248.947,-180.8985 302.6821,-152.0576 336.6967,-133.8012"/>
<text text-anchor="middle" x="304" y="-160.8" font-family="Times,serif" font-size="14.00" fill="#000000">4h30</text>
</g>
<!-- Lyon&#45;&#45;Marseille -->
<g id="edge17" class="edge">
<title>Lyon&#45;&#45;Marseille</title>
<path fill="none" stroke="#000000" d="M170.7534,-194.3539C151.9141,-177.9343 123.8915,-153.511 104.3919,-136.5159"/>
<text text-anchor="middle" x="157" y="-160.8" font-family="Times,serif" font-size="14.00" fill="#000000">1h20</text>
</g>
<!-- Lyon&#45;&#45;Montpellier -->
<g id="edge18" class="edge">
<title>Lyon&#45;&#45;Montpellier</title>
<path fill="none" stroke="#000000" d="M198.8704,-190.6006C211.3987,-159.0129 238.5579,-99.596 278,-62 285.5848,-54.7702 294.4339,-47.5708 302.6589,-41.3137"/>
<text text-anchor="middle" x="263" y="-113.3" font-family="Times,serif" font-size="14.00" fill="#000000">1h45</text>
</g>
<!-- Bordeaux&#45;&#45;Toulouse -->
<g id="edge19" class="edge">
<title>Bordeaux&#45;&#45;Toulouse</title>
<path fill="none" stroke="#000000" d="M404.5206,-284.8937C400.9417,-255.4165 393.4713,-201.7548 382,-157 380.4655,-151.0132 378.4307,-144.6486 376.3891,-138.7987"/>
<text text-anchor="middle" x="411" y="-208.3" font-family="Times,serif" font-size="14.00" fill="#000000">2h10</text>
</g>
<!-- Toulouse&#45;&#45;Montpellier -->
<g id="edge20" class="edge">
<title>Toulouse&#45;&#45;Montpellier</title>
<path fill="none" stroke="#000000" d="M359.1865,-94.9663C353.0475,-79.6188 344.8942,-59.2355 338.7657,-43.9142"/>
<text text-anchor="middle" x="365" y="-65.8" font-family="Times,serif" font-size="14.00" fill="#000000">2h16</text>
</g>
<!-- Strasbourg -->
<g id="node9" class="node">
<title>Strasbourg</title>
<ellipse fill="#ffffff" stroke="#000000" cx="377" cy="-497" rx="48.9926" ry="18"/>
<text text-anchor="middle" x="377" y="-493.3" font-family="Times,serif" font-size="14.00" fill="#000000">Strasbourg</text>
</g>
</g>
</svg>
