<?xml version="1.0" encoding="UTF-8" standalone="no"?>
<!DOCTYPE svg PUBLIC "-//W3C//DTD SVG 1.1//EN"
 "http://www.w3.org/Graphics/SVG/1.1/DTD/svg11.dtd">
<!-- Generated by graphviz version 2.40.1 (20161225.0304)
 -->
<!-- Title: tgv Pages: 1 -->
<svg width="576pt" height="495pt"
 viewBox="0.00 0.00 576.00 495.00" xmlns="http://www.w3.org/2000/svg" xmlns:xlink="http://www.w3.org/1999/xlink">
<g id="graph0" class="graph" transform="scale(1 1) rotate(0) translate(4 491)">
<title>tgv</title>
<polygon fill="#ffffff" stroke="transparent" points="-4,4 -4,-491 572,-491 572,4 -4,4"/>
<!-- Lille -->
<g id="node1" class="node">
<title>Lille</title>
<ellipse fill="#ffff00" stroke="#000000" cx="271" cy="-469" rx="27.0966" ry="18"/>
<text text-anchor="middle" x="271" y="-465.3" font-family="Times,serif" font-size="14.00" fill="#000000">Lille</text>
</g>
<!-- Paris -->
<g id="node2" class="node">
<title>Paris</title>
<ellipse fill="#ffff00" stroke="#000000" cx="271" cy="-382" rx="28.6953" ry="18"/>
<text text-anchor="middle" x="271" y="-378.3" font-family="Times,serif" font-size="14.00" fill="#000000">Paris</text>
</g>
<!-- Lille&#45;&#45;Paris -->
<g id="edge1" class="edge">
<title>Lille&#45;&#45;Paris</title>
<path fill="none" stroke="#000000" d="M271,-450.9735C271,-436.0422 271,-414.9283 271,-400.0034"/>
<text text-anchor="middle" x="285" y="-421.8" font-family="Times,serif" font-size="14.00" fill="#000000">1h00</text>
</g>
<!-- Nantes -->
<g id="node3" class="node">
<title>Nantes</title>
<ellipse fill="#ffffff" stroke="#000000" cx="119" cy="-291" rx="35.194" ry="18"/>
<text text-anchor="middle" x="119" y="-287.3" font-family="Times,serif" font-size="14.00" fill="#000000">Nantes</text>
</g>
<!-- Lille&#45;&#45;Nantes -->
<g id="edge2" class="edge">
<title>Lille&#45;&#45;Nantes</title>
<path fill="none" stroke="#000000" d="M243.8628,-465.4C218.2359,-460.9993 179.5767,-451.6948 151,-433 134.9037,-422.4698 129.9582,-417.9321 123,-400 111.286,-369.8119 113.4365,-331.3193 116.1559,-309.086"/>
<text text-anchor="middle" x="137" y="-378.3" font-family="Times,serif" font-size="14.00" fill="#000000">4h10</text>
</g>
<!-- Lyon -->
<g id="node4" class="node">
<title>Lyon</title>
<ellipse fill="#ffffff" stroke="#000000" cx="188" cy="-196" rx="29.4667" ry="18"/>
<ellipse fill="none" stroke="#000000" cx="188" cy="-196" rx="33.4967" ry="22"/>
<text text-anchor="middle" x="188" y="-192.3" font-family="Times,serif" font-size="14.00" fill="#000000">Lyon</text>
</g>
<!-- Lille&#45;&#45;Lyon -->
<g id="edge3" class="edge">
<title>Lille&#45;&#45;Lyon</title>
<path fill="none" stroke="#000000" d="M252.7001,-455.6115C226.7033,-435.321 180.2154,-394.0197 162,-346 157.5239,-334.2001 174.2,-256.5095 182.957,-217.8179"/>
<text text-anchor="middle" x="176" y="-334.8" font-family="Times,serif" font-size="14.00" fill="#000000">2h50</text>
</g>
<!-- Bordeaux -->
<g id="node5" class="node">
<title>Bordeaux</title>
<ellipse fill="#ffffff" stroke="#000000" cx="399" cy="-291" rx="44.7051" ry="18"/>
<ellipse fill="none" stroke="#000000" cx="399" cy="-291" rx="48.6925" ry="22"/>
<text text-anchor="middle" x="399" y="-287.3" font-family="Times,serif" font-size="14.00" fill="#000000">Bordeaux</text>
</g>
<!-- Lille&#45;&#45;Bordeaux -->
<g id="edge4" class="edge">
<title>Lille&#45;&#45;Bordeaux</title>
<path fill="none" stroke="#000000" d="M288.032,-454.905C312.5376,-433.7346 357.5831,-391.3478 383,-346 388.6887,-335.8505 392.5196,-323.49 395.0026,-313.0595"/>
<text text-anchor="middle" x="385" y="-378.3" font-family="Times,serif" font-size="14.00" fill="#000000">5h00</text>
</g>
<!-- Toulouse -->
<g id="node6" class="node">
<title>Toulouse</title>
<ellipse fill="#ffff00" stroke="#000000" cx="360" cy="-105" rx="43.5923" ry="18"/>
<text text-anchor="middle" x="360" y="-101.3" font-family="Times,serif" font-size="14.00" fill="#000000">Toulouse</text>
</g>
<!-- Lille&#45;&#45;Toulouse -->
<g id="edge5" class="edge">
<title>Lille&#45;&#45;Toulouse</title>
<path fill="none" stroke="#000000" d="M292.5483,-457.823C297.2716,-455.4864 302.2736,-453.0975 307,-451 384.1743,-416.7507 484,-466.4327 484,-382 484,-382 484,-382 484,-196 484,-152.2074 433.1104,-127.1776 396.5334,-114.8433"/>
<text text-anchor="middle" x="498" y="-287.3" font-family="Times,serif" font-size="14.00" fill="#000000">8h20</text>
</g>
<!-- Marseille -->
<g id="node7" class="node">
<title>Marseille</title>
<ellipse fill="#ffffff" stroke="#000000" cx="80" cy="-105" rx="44.393" ry="18"/>
<text text-anchor="middle" x="80" y="-101.3" font-family="Times,serif" font-size="14.00" fill="#000000">Marseille</text>
</g>
<!-- Lille&#45;&#45;Marseille -->
<g id="edge6" class="edge">
<title>Lille&#45;&#45;Marseille</title>
<path fill="none" stroke="#000000" d="M244.0247,-466.1646C175.4785,-458.2157 0,-432.896 0,-382 0,-382 0,-382 0,-196 0,-162.5534 30.8606,-135.5498 54.2471,-119.8881"/>
<text text-anchor="middle" x="14" y="-287.3" font-family="Times,serif" font-size="14.00" fill="#000000">4h30</text>
</g>
<!-- Montpellier -->
<g id="node8" class="node">
<title>Montpellier</title>
<ellipse fill="#ffffff" stroke="#000000" cx="322" cy="-18" rx="52.7911" ry="18"/>
<text text-anchor="middle" x="322" y="-14.3" font-family="Times,serif" font-size="14.00" fill="#000000">Montpellier</text>
</g>
<!-- Lille&#45;&#45;Montpellier -->
<g id="edge7" class="edge">
<title>Lille&#45;&#45;Montpellier</title>
<path fill="none" stroke="#000000" d="M291.8091,-457.0406C296.6627,-454.6944 301.9053,-452.499 307,-451 410.6092,-420.5151 540,-490.0009 540,-382 540,-382 540,-382 540,-105 540,-68.3252 432.2241,-40.2128 368.2322,-26.7535"/>
<text text-anchor="middle" x="554" y="-239.8" font-family="Times,serif" font-size="14.00" fill="#000000">4h40</text>
</g>
<!-- Paris&#45;&#45;Nantes -->
<g id="edge8" class="edge">
<title>Paris&#45;&#45;Nantes</title>
<path fill="none" stroke="#000000" d="M250.9848,-368.6751C229.1497,-354.1491 196.8924,-332.7239 194,-331 177.7744,-321.3294 159.0244,-311.3294 144.3308,-303.7471"/>
<text text-anchor="middle" x="230" y="-334.8" font-family="Times,serif" font-size="14.00" fill="#000000">2h00</text>
</g>
<!-- Paris&#45;&#45;Lyon -->
<g id="edge9" class="edge">
<title>Paris&#45;&#45;Lyon</title>
<path fill="none" stroke="#000000" d="M263.1916,-364.5016C247.8971,-330.2271 214.0446,-254.365 197.4892,-217.265"/>
<text text-anchor="middle" x="253" y="-287.3" font-family="Times,serif" font-size="14.00" fill="#000000">1h55</text>
</g>
<!-- Paris&#45;&#45;Bordeaux -->
<g id="edge10" class="edge">
<title>Paris&#45;&#45;Bordeaux</title>
<path fill="none" stroke="#000000" d="M293.0745,-370.3731C305.1703,-363.7102 320.2511,-354.9181 333,-346 348.3997,-335.2277 364.6287,-321.7357 377.1401,-310.8108"/>
<text text-anchor="middle" x="365" y="-334.8" font-family="Times,serif" font-size="14.00" fill="#000000">2h10</text>
</g>
<!-- Paris&#45;&#45;Toulouse -->
<g id="edge13" class="edge">
<title>Paris&#45;&#45;Toulouse</title>
<path fill="none" stroke="#000000" d="M285.0918,-366.0336C289.7588,-360.0765 294.6184,-353.0427 298,-346 335.494,-267.9138 352.2884,-164.3112 357.8081,-123.0599"/>
<text text-anchor="middle" x="349" y="-239.8" font-family="Times,serif" font-size="14.00" fill="#000000">5h14</text>
</g>
<!-- Paris&#45;&#45;Marseille -->
<g id="edge11" class="edge">
<title>Paris&#45;&#45;Marseille</title>
<path fill="none" stroke="#000000" d="M243.6254,-376.5178C194.4195,-366.034 94.335,-341.6231 75,-313 34.9657,-253.734 59.8505,-161.7183 73.1814,-123.0659"/>
<text text-anchor="middle" x="69" y="-239.8" font-family="Times,serif" font-size="14.00" fill="#000000">2h56</text>
</g>
<!-- Paris&#45;&#45;Montpellier -->
<g id="edge12" class="edge">
<title>Paris&#45;&#45;Montpellier</title>
<path fill="none" stroke="#000000" d="M275.1133,-363.9794C278.9219,-345.6977 284,-316.5344 284,-291 284,-291 284,-291 284,-105 284,-79.2879 298.1108,-52.6061 309.1349,-35.6842"/>
<text text-anchor="middle" x="298" y="-192.3" font-family="Times,serif" font-size="14.00" fill="#000000">3h15</text>
</g>
<!-- Nantes&#45;&#45;Lyon -->
<g id="edge14" class="edge">
<title>Nantes&#45;&#45;Lyon</title>
<path fill="none" stroke="#000000" d="M123.3372,-273.0248C126.6572,-261.6907 132.0377,-247.1438 140,-236 146.5586,-226.8209 155.7102,-218.4982 164.2656,-211.8511"/>
<text text-anchor="middle" x="154" y="-239.8" font-family="Times,serif" font-size="14.00" fill="#000000">4h20</text>
</g>
<!-- Nantes&#45;&#45;Marseille -->
<g id="edge15" class="edge">
<title>Nantes&#45;&#45;Marseille</title>
<path fill="none" stroke="#000000" d="M115.1895,-272.8269C107.7144,-237.1766 91.2097,-158.4615 83.7685,-122.973"/>
<text text-anchor="middle" x="118" y="-192.3" font-family="Times,serif" font-size="14.00" fill="#000000">6h20</text>
</g>
<!-- Lyon&#45;&#45;Toulouse -->
<g id="edge16" class="edge">
<title>Lyon&#45;&#45;Toulouse</title>
<path fill="none" stroke="#000000" d="M214.1231,-182.1791C246.2634,-165.1746 300.5539,-136.4511 333.063,-119.2516"/>
<text text-anchor="middle" x="303" y="-144.8" font-family="Times,serif" font-size="14.00" fill="#000000">4h30</text>
</g>
<!-- Lyon&#45;&#45;Marseille -->
<g id="edge17" class="edge">
<title>Lyon&#45;&#45;Marseille</title>
<path fill="none" stroke="#000000" d="M167.4318,-178.6694C147.8473,-162.1676 118.5904,-137.516 99.4018,-121.3478"/>
<text text-anchor="middle" x="154" y="-144.8" font-family="Times,serif" font-size="14.00" fill="#000000">1h20</text>
</g>
<!-- Lyon&#45;&#45;Montpellier -->
<g id="edge18" class="edge">
<title>Lyon&#45;&#45;Montpellier</title>
<path fill="none" stroke="#000000" d="M195.5457,-174.4765C207.1974,-144.0121 232.2446,-88.2231 270,-54 278.054,-46.6995 287.6554,-39.6616 296.4029,-33.7751"/>
<text text-anchor="middle" x="254" y="-101.3" font-family="Times,serif" font-size="14.00" fill="#000000">1h45</text>
</g>
<!-- Bordeaux&#45;&#45;Toulouse -->
<g id="edge19" class="edge">
<title>Bordeaux&#45;&#45;Toulouse</title>
<path fill="none" stroke="#000000" d="M396.7501,-268.8328C393.4251,-239.2881 386.2352,-185.552 374,-141 372.3662,-135.0508 370.0986,-128.7281 367.8637,-123.0688"/>
<text text-anchor="middle" x="403" y="-192.3" font-family="Times,serif" font-size="14.00" fill="#000000">2h10</text>
</g>
<!-- Toulouse&#45;&#45;Montpellier -->
<g id="edge20" class="edge">
<title>Toulouse&#45;&#45;Montpellier</title>
<path fill="none" stroke="#000000" d="M352.1264,-86.9735C345.6046,-72.0422 336.3825,-50.9283 329.8635,-36.0034"/>
<text text-anchor="middle" x="357" y="-57.8" font-family="Times,serif" font-size="14.00" fill="#000000">2h16</text>
</g>
<!-- Strasbourg -->
<g id="node9" class="node">
<title>Strasbourg</title>
<ellipse fill="#ffffff" stroke="#000000" cx="365" cy="-469" rx="48.9926" ry="18"/>
<text text-anchor="middle" x="365" y="-465.3" font-family="Times,serif" font-size="14.00" fill="#000000">Strasbourg</text>
</g>
</g>
</svg>
