<?xml version="1.0" encoding="UTF-8" standalone="no"?>
<!DOCTYPE svg PUBLIC "-//W3C//DTD SVG 1.1//EN"
 "http://www.w3.org/Graphics/SVG/1.1/DTD/svg11.dtd">
<!-- Generated by graphviz version 2.40.1 (20161225.0304)
 -->
<!-- Title: tgv Pages: 1 -->
<svg width="568pt" height="479pt"
 viewBox="0.00 0.00 568.00 479.00" xmlns="http://www.w3.org/2000/svg" xmlns:xlink="http://www.w3.org/1999/xlink">
<g id="graph0" class="graph" transform="scale(1 1) rotate(0) translate(4 475)">
<title>tgv</title>
<polygon fill="#ffffff" stroke="transparent" points="-4,4 -4,-475 564,-475 564,4 -4,4"/>
<!-- Lille -->
<g id="node1" class="node">
<title>Lille</title>
<ellipse fill="#ffff00" stroke="#000000" cx="271" cy="-453" rx="27.0966" ry="18"/>
<text text-anchor="middle" x="271" y="-449.3" font-family="Times,serif" font-size="14.00" fill="#000000">Lille</text>
</g>
<!-- Paris -->
<g id="node2" class="node">
<title>Paris</title>
<ellipse fill="#ffff00" stroke="#000000" cx="271" cy="-366" rx="28.6953" ry="18"/>
<text text-anchor="middle" x="271" y="-362.3" font-family="Times,serif" font-size="14.00" fill="#000000">Paris</text>
</g>
<!-- Lille&#45;&#45;Paris -->
<g id="edge1" class="edge">
<title>Lille&#45;&#45;Paris</title>
<path fill="none" stroke="#000000" d="M271,-434.9735C271,-420.0422 271,-398.9283 271,-384.0034"/>
<text text-anchor="middle" x="285" y="-405.8" font-family="Times,serif" font-size="14.00" fill="#000000">1h00</text>
</g>
<!-- Nantes -->
<g id="node3" class="node">
<title>Nantes</title>
<ellipse fill="#ffffff" stroke="#000000" cx="119" cy="-279" rx="35.194" ry="18"/>
<text text-anchor="middle" x="119" y="-275.3" font-family="Times,serif" font-size="14.00" fill="#000000">Nantes</text>
</g>
<!-- Lille&#45;&#45;Nantes -->
<g id="edge2" class="edge">
<title>Lille&#45;&#45;Nantes</title>
<path fill="none" stroke="#000000" d="M243.8628,-449.4C218.2359,-444.9993 179.5767,-435.6948 151,-417 134.9037,-406.4698 129.9707,-401.9272 123,-384 111.8272,-355.2661 113.6628,-318.7103 116.2008,-297.1823"/>
<text text-anchor="middle" x="137" y="-362.3" font-family="Times,serif" font-size="14.00" fill="#000000">4h10</text>
</g>
<!-- Lyon -->
<g id="node4" class="node">
<title>Lyon</title>
<ellipse fill="#ffffff" stroke="#000000" cx="201" cy="-192" rx="29.4969" ry="18"/>
<text text-anchor="middle" x="201" y="-188.3" font-family="Times,serif" font-size="14.00" fill="#000000">Lyon</text>
</g>
<!-- Lille&#45;&#45;Lyon -->
<g id="edge3" class="edge">
<title>Lille&#45;&#45;Lyon</title>
<path fill="none" stroke="#000000" d="M252.7001,-439.6115C226.7033,-419.321 180.2154,-378.0197 162,-330 153.523,-307.6529 179.699,-241.2015 193.3168,-209.3724"/>
<text text-anchor="middle" x="176" y="-318.8" font-family="Times,serif" font-size="14.00" fill="#000000">2h50</text>
</g>
<!-- Bordeaux -->
<g id="node5" class="node">
<title>Bordeaux</title>
<ellipse fill="#ffffff" stroke="#000000" cx="395" cy="-279" rx="44.6926" ry="18"/>
<text text-anchor="middle" x="395" y="-275.3" font-family="Times,serif" font-size="14.00" fill="#000000">Bordeaux</text>
</g>
<!-- Lille&#45;&#45;Bordeaux -->
<g id="edge4" class="edge">
<title>Lille&#45;&#45;Bordeaux</title>
<path fill="none" stroke="#000000" d="M288.6191,-439.1705C313.8855,-418.3307 360.0016,-376.3518 384,-330 389.2473,-319.865 391.994,-307.352 393.4305,-297.257"/>
<text text-anchor="middle" x="386" y="-362.3" font-family="Times,serif" font-size="14.00" fill="#000000">5h00</text>
</g>
<!-- Toulouse -->
<g id="node6" class="node">
<title>Toulouse</title>
<ellipse fill="#ffff00" stroke="#000000" cx="360" cy="-105" rx="43.5923" ry="18"/>
<text text-anchor="middle" x="360" y="-101.3" font-family="Times,serif" font-size="14.00" fill="#000000">Toulouse</text>
</g>
<!-- Lille&#45;&#45;Toulouse -->
<g id="edge5" class="edge">
<title>Lille&#45;&#45;Toulouse</title>
<path fill="none" stroke="#000000" d="M292.5738,-441.88C297.2956,-439.5398 302.2905,-437.1351 307,-435 380.8915,-401.5012 476,-447.1303 476,-366 476,-366 476,-366 476,-192 476,-151.4705 430.1193,-127.509 396.0673,-115.3064"/>
<text text-anchor="middle" x="490" y="-275.3" font-family="Times,serif" font-size="14.00" fill="#000000">8h20</text>
</g>
<!-- Marseille -->
<g id="node7" class="node">
<title>Marseille</title>
<ellipse fill="#ffffff" stroke="#000000" cx="80" cy="-105" rx="44.393" ry="18"/>
<text text-anchor="middle" x="80" y="-101.3" font-family="Times,serif" font-size="14.00" fill="#000000">Marseille</text>
</g>
<!-- Lille&#45;&#45;Marseille -->
<g id="edge6" class="edge">
<title>Lille&#45;&#45;Marseille</title>
<path fill="none" stroke="#000000" d="M244.0247,-450.1646C175.4785,-442.2157 0,-416.896 0,-366 0,-366 0,-366 0,-192 0,-159.7849 30.0891,-134.3617 53.3612,-119.5163"/>
<text text-anchor="middle" x="14" y="-275.3" font-family="Times,serif" font-size="14.00" fill="#000000">4h30</text>
</g>
<!-- Montpellier -->
<g id="node8" class="node">
<title>Montpellier</title>
<ellipse fill="#ffffff" stroke="#000000" cx="322" cy="-18" rx="52.7911" ry="18"/>
<text text-anchor="middle" x="322" y="-14.3" font-family="Times,serif" font-size="14.00" fill="#000000">Montpellier</text>
</g>
<!-- Lille&#45;&#45;Montpellier -->
<g id="edge7" class="edge">
<title>Lille&#45;&#45;Montpellier</title>
<path fill="none" stroke="#000000" d="M291.8169,-441.0669C296.6701,-438.7193 301.9105,-436.5167 307,-435 407.2401,-405.1275 532,-470.5966 532,-366 532,-366 532,-366 532,-105 532,-69.6311 429.0426,-41.1387 367.3083,-27.2334"/>
<text text-anchor="middle" x="546" y="-231.8" font-family="Times,serif" font-size="14.00" fill="#000000">4h40</text>
</g>
<!-- Paris&#45;&#45;Nantes -->
<g id="edge8" class="edge">
<title>Paris&#45;&#45;Nantes</title>
<path fill="none" stroke="#000000" d="M250.9975,-352.6532C229.1744,-338.1066 196.9284,-316.6622 194,-315 178.4246,-306.1593 160.3414,-297.4368 145.8342,-290.7921"/>
<text text-anchor="middle" x="230" y="-318.8" font-family="Times,serif" font-size="14.00" fill="#000000">2h00</text>
</g>
<!-- Paris&#45;&#45;Lyon -->
<g id="edge9" class="edge">
<title>Paris&#45;&#45;Lyon</title>
<path fill="none" stroke="#000000" d="M263.4856,-348.4681C257.5565,-334.5524 249.1262,-314.5823 242,-297 229.6506,-266.5306 215.8525,-230.8326 207.8257,-209.8905"/>
<text text-anchor="middle" x="256" y="-275.3" font-family="Times,serif" font-size="14.00" fill="#000000">1h55</text>
</g>
<!-- Paris&#45;&#45;Bordeaux -->
<g id="edge10" class="edge">
<title>Paris&#45;&#45;Bordeaux</title>
<path fill="none" stroke="#000000" d="M293.0522,-354.3411C305.1413,-347.6685 320.2227,-338.8774 333,-330 348.3379,-319.3436 364.6061,-305.8698 376.6283,-295.4478"/>
<text text-anchor="middle" x="366" y="-318.8" font-family="Times,serif" font-size="14.00" fill="#000000">2h10</text>
</g>
<!-- Paris&#45;&#45;Toulouse -->
<g id="edge13" class="edge">
<title>Paris&#45;&#45;Toulouse</title>
<path fill="none" stroke="#000000" d="M285.025,-350.0012C289.6856,-344.0409 294.5583,-337.0136 298,-330 333.4316,-257.7959 351.1928,-162.2877 357.384,-123.0262"/>
<text text-anchor="middle" x="348" y="-231.8" font-family="Times,serif" font-size="14.00" fill="#000000">5h14</text>
</g>
<!-- Paris&#45;&#45;Marseille -->
<g id="edge11" class="edge">
<title>Paris&#45;&#45;Marseille</title>
<path fill="none" stroke="#000000" d="M243.6137,-360.5256C194.3887,-350.0547 94.2738,-325.6643 75,-297 38.6254,-242.9032 60.7233,-159.4574 73.1996,-123.0376"/>
<text text-anchor="middle" x="71" y="-231.8" font-family="Times,serif" font-size="14.00" fill="#000000">2h56</text>
</g>
<!-- Paris&#45;&#45;Montpellier -->
<g id="edge12" class="edge">
<title>Paris&#45;&#45;Montpellier</title>
<path fill="none" stroke="#000000" d="M275.2567,-348.1212C279.048,-330.6143 284,-303.1295 284,-279 284,-279 284,-279 284,-105 284,-79.2879 298.1108,-52.6061 309.1349,-35.6842"/>
<text text-anchor="middle" x="298" y="-188.3" font-family="Times,serif" font-size="14.00" fill="#000000">3h15</text>
</g>
<!-- Nantes&#45;&#45;Lyon -->
<g id="edge14" class="edge">
<title>Nantes&#45;&#45;Lyon</title>
<path fill="none" stroke="#000000" d="M123.3288,-260.9338C126.5591,-250.4111 131.8471,-237.4066 140,-228 149.8259,-216.6632 164.1403,-207.9558 176.4335,-201.9463"/>
<text text-anchor="middle" x="154" y="-231.8" font-family="Times,serif" font-size="14.00" fill="#000000">4h20</text>
</g>
<!-- Nantes&#45;&#45;Marseille -->
<g id="edge15" class="edge">
<title>Nantes&#45;&#45;Marseille</title>
<path fill="none" stroke="#000000" d="M114.9732,-261.0343C107.4999,-227.6918 91.5641,-156.5937 84.0633,-123.1286"/>
<text text-anchor="middle" x="118" y="-188.3" font-family="Times,serif" font-size="14.00" fill="#000000">6h20</text>
</g>
<!-- Lyon&#45;&#45;Toulouse -->
<g id="edge16" class="edge">
<title>Lyon&#45;&#45;Toulouse</title>
<path fill="none" stroke="#000000" d="M223.1083,-179.903C252.0351,-164.0752 302.6683,-136.3702 333.5827,-119.4548"/>
<text text-anchor="middle" x="304" y="-144.8" font-family="Times,serif" font-size="14.00" fill="#000000">4h30</text>
</g>
<!-- Lyon&#45;&#45;Marseille -->
<g id="edge17" class="edge">
<title>Lyon&#45;&#45;Marseille</title>
<path fill="none" stroke="#000000" d="M181.8272,-178.2146C160.1032,-162.5948 124.7615,-137.1839 101.9505,-120.7826"/>
<text text-anchor="middle" x="161" y="-144.8" font-family="Times,serif" font-size="14.00" fill="#000000">1h20</text>
</g>
<!-- Lyon&#45;&#45;Montpellier -->
<g id="edge18" class="edge">
<title>Lyon&#45;&#45;Montpellier</title>
<path fill="none" stroke="#000000" d="M206.0013,-174.0851C212.4673,-152.498 224.9543,-115.5697 242,-87 251.8553,-70.4819 255.7487,-66.918 270,-54 278.054,-46.6995 287.6554,-39.6616 296.4029,-33.7751"/>
<text text-anchor="middle" x="256" y="-101.3" font-family="Times,serif" font-size="14.00" fill="#000000">1h45</text>
</g>
<!-- Bordeaux&#45;&#45;Toulouse -->
<g id="edge19" class="edge">
<title>Bordeaux&#45;&#45;Toulouse</title>
<path fill="none" stroke="#000000" d="M393.5222,-260.877C391.0644,-234.2485 385.2544,-183.1446 374,-141 372.4083,-135.0394 370.1525,-128.7135 367.9155,-123.0548"/>
<text text-anchor="middle" x="401" y="-188.3" font-family="Times,serif" font-size="14.00" fill="#000000">2h10</text>
</g>
<!-- Toulouse&#45;&#45;Montpellier -->
<g id="edge20" class="edge">
<title>Toulouse&#45;&#45;Montpellier</title>
<path fill="none" stroke="#000000" d="M352.1264,-86.9735C345.6046,-72.0422 336.3825,-50.9283 329.8635,-36.0034"/>
<text text-anchor="middle" x="357" y="-57.8" font-family="Times,serif" font-size="14.00" fill="#000000">2h16</text>
</g>
<!-- Strasbourg -->
<g id="node9" class="node">
<title>Strasbourg</title>
<ellipse fill="#ffffff" stroke="#000000" cx="365" cy="-453" rx="48.9926" ry="18"/>
<text text-anchor="middle" x="365" y="-449.3" font-family="Times,serif" font-size="14.00" fill="#000000">Strasbourg</text>
</g>
</g>
</svg>
