<?xml version="1.0" encoding="UTF-8" standalone="no"?>
<!DOCTYPE svg PUBLIC "-//W3C//DTD SVG 1.1//EN"
 "http://www.w3.org/Graphics/SVG/1.1/DTD/svg11.dtd">
<!-- Generated by graphviz version 2.40.1 (20161225.0304)
 -->
<!-- Title: tgv Pages: 1 -->
<svg width="576pt" height="487pt"
 viewBox="0.00 0.00 576.00 487.00" xmlns="http://www.w3.org/2000/svg" xmlns:xlink="http://www.w3.org/1999/xlink">
<g id="graph0" class="graph" transform="scale(1 1) rotate(0) translate(4 483)">
<title>tgv</title>
<polygon fill="#ffffff" stroke="transparent" points="-4,4 -4,-483 572,-483 572,4 -4,4"/>
<!-- Lille -->
<g id="node1" class="node">
<title>Lille</title>
<ellipse fill="#ffff00" stroke="#000000" cx="271" cy="-461" rx="27.0966" ry="18"/>
<text text-anchor="middle" x="271" y="-457.3" font-family="Times,serif" font-size="14.00" fill="#000000">Lille</text>
</g>
<!-- Paris -->
<g id="node2" class="node">
<title>Paris</title>
<ellipse fill="#ffff00" stroke="#000000" cx="271" cy="-374" rx="28.6953" ry="18"/>
<text text-anchor="middle" x="271" y="-370.3" font-family="Times,serif" font-size="14.00" fill="#000000">Paris</text>
</g>
<!-- Lille&#45;&#45;Paris -->
<g id="edge1" class="edge">
<title>Lille&#45;&#45;Paris</title>
<path fill="none" stroke="#000000" d="M271,-442.9735C271,-428.0422 271,-406.9283 271,-392.0034"/>
<text text-anchor="middle" x="285" y="-413.8" font-family="Times,serif" font-size="14.00" fill="#000000">1h00</text>
</g>
<!-- Nantes -->
<g id="node3" class="node">
<title>Nantes</title>
<ellipse fill="#ffffff" stroke="#000000" cx="119" cy="-283" rx="35.194" ry="18"/>
<text text-anchor="middle" x="119" y="-279.3" font-family="Times,serif" font-size="14.00" fill="#000000">Nantes</text>
</g>
<!-- Lille&#45;&#45;Nantes -->
<g id="edge2" class="edge">
<title>Lille&#45;&#45;Nantes</title>
<path fill="none" stroke="#000000" d="M243.8628,-457.4C218.2359,-452.9993 179.5767,-443.6948 151,-425 134.9037,-414.4698 129.9582,-409.9321 123,-392 111.286,-361.8119 113.4365,-323.3193 116.1559,-301.086"/>
<text text-anchor="middle" x="137" y="-370.3" font-family="Times,serif" font-size="14.00" fill="#000000">4h10</text>
</g>
<!-- Lyon -->
<g id="node4" class="node">
<title>Lyon</title>
<ellipse fill="#ffffff" stroke="#000000" cx="201" cy="-192" rx="29.4969" ry="18"/>
<text text-anchor="middle" x="201" y="-188.3" font-family="Times,serif" font-size="14.00" fill="#000000">Lyon</text>
</g>
<!-- Lille&#45;&#45;Lyon -->
<g id="edge3" class="edge">
<title>Lille&#45;&#45;Lyon</title>
<path fill="none" stroke="#000000" d="M252.7001,-447.6115C226.7033,-427.321 180.2154,-386.0197 162,-338 159.6355,-331.7667 161.0388,-329.597 162,-323 168.0555,-281.4375 184.381,-234.7246 193.8803,-209.8519"/>
<text text-anchor="middle" x="176" y="-326.8" font-family="Times,serif" font-size="14.00" fill="#000000">2h50</text>
</g>
<!-- Bordeaux -->
<g id="node5" class="node">
<title>Bordeaux</title>
<ellipse fill="#ffffff" stroke="#000000" cx="399" cy="-283" rx="44.7051" ry="18"/>
<ellipse fill="none" stroke="#000000" cx="399" cy="-283" rx="48.6925" ry="22"/>
<text text-anchor="middle" x="399" y="-279.3" font-family="Times,serif" font-size="14.00" fill="#000000">Bordeaux</text>
</g>
<!-- Lille&#45;&#45;Bordeaux -->
<g id="edge4" class="edge">
<title>Lille&#45;&#45;Bordeaux</title>
<path fill="none" stroke="#000000" d="M288.032,-446.905C312.5376,-425.7346 357.5831,-383.3478 383,-338 388.6887,-327.8505 392.5196,-315.49 395.0026,-305.0595"/>
<text text-anchor="middle" x="385" y="-370.3" font-family="Times,serif" font-size="14.00" fill="#000000">5h00</text>
</g>
<!-- Toulouse -->
<g id="node6" class="node">
<title>Toulouse</title>
<ellipse fill="#ffff00" stroke="#000000" cx="360" cy="-105" rx="43.5923" ry="18"/>
<text text-anchor="middle" x="360" y="-101.3" font-family="Times,serif" font-size="14.00" fill="#000000">Toulouse</text>
</g>
<!-- Lille&#45;&#45;Toulouse -->
<g id="edge5" class="edge">
<title>Lille&#45;&#45;Toulouse</title>
<path fill="none" stroke="#000000" d="M292.5483,-449.823C297.2716,-447.4864 302.2736,-445.0975 307,-443 384.1743,-408.7507 484,-458.4327 484,-374 484,-374 484,-374 484,-192 484,-149.2659 434.037,-125.7294 397.5406,-114.2373"/>
<text text-anchor="middle" x="498" y="-279.3" font-family="Times,serif" font-size="14.00" fill="#000000">8h20</text>
</g>
<!-- Marseille -->
<g id="node7" class="node">
<title>Marseille</title>
<ellipse fill="#ffffff" stroke="#000000" cx="80" cy="-105" rx="44.393" ry="18"/>
<text text-anchor="middle" x="80" y="-101.3" font-family="Times,serif" font-size="14.00" fill="#000000">Marseille</text>
</g>
<!-- Lille&#45;&#45;Marseille -->
<g id="edge6" class="edge">
<title>Lille&#45;&#45;Marseille</title>
<path fill="none" stroke="#000000" d="M244.0247,-458.1646C175.4785,-450.2157 0,-424.896 0,-374 0,-374 0,-374 0,-192 0,-159.7849 30.0891,-134.3617 53.3612,-119.5163"/>
<text text-anchor="middle" x="14" y="-279.3" font-family="Times,serif" font-size="14.00" fill="#000000">4h30</text>
</g>
<!-- Montpellier -->
<g id="node8" class="node">
<title>Montpellier</title>
<ellipse fill="#ffffff" stroke="#000000" cx="322" cy="-18" rx="52.7911" ry="18"/>
<text text-anchor="middle" x="322" y="-14.3" font-family="Times,serif" font-size="14.00" fill="#000000">Montpellier</text>
</g>
<!-- Lille&#45;&#45;Montpellier -->
<g id="edge7" class="edge">
<title>Lille&#45;&#45;Montpellier</title>
<path fill="none" stroke="#000000" d="M291.8091,-449.0406C296.6627,-446.6944 301.9053,-444.499 307,-443 410.6092,-412.5151 540,-482.0009 540,-374 540,-374 540,-374 540,-105 540,-68.3252 432.2241,-40.2128 368.2322,-26.7535"/>
<text text-anchor="middle" x="554" y="-231.8" font-family="Times,serif" font-size="14.00" fill="#000000">4h40</text>
</g>
<!-- Paris&#45;&#45;Nantes -->
<g id="edge8" class="edge">
<title>Paris&#45;&#45;Nantes</title>
<path fill="none" stroke="#000000" d="M250.9848,-360.6751C229.1497,-346.1491 196.8924,-324.7239 194,-323 177.7744,-313.3294 159.0244,-303.3294 144.3308,-295.7471"/>
<text text-anchor="middle" x="230" y="-326.8" font-family="Times,serif" font-size="14.00" fill="#000000">2h00</text>
</g>
<!-- Paris&#45;&#45;Lyon -->
<g id="edge9" class="edge">
<title>Paris&#45;&#45;Lyon</title>
<path fill="none" stroke="#000000" d="M263.3674,-356.5151C257.3732,-342.6255 248.9128,-322.6672 242,-305 228.9204,-271.5723 214.9084,-232.0531 207.1213,-209.7176"/>
<text text-anchor="middle" x="256" y="-279.3" font-family="Times,serif" font-size="14.00" fill="#000000">1h55</text>
</g>
<!-- Paris&#45;&#45;Bordeaux -->
<g id="edge10" class="edge">
<title>Paris&#45;&#45;Bordeaux</title>
<path fill="none" stroke="#000000" d="M293.0745,-362.3731C305.1703,-355.7102 320.2511,-346.9181 333,-338 348.3997,-327.2277 364.6287,-313.7357 377.1401,-302.8108"/>
<text text-anchor="middle" x="365" y="-326.8" font-family="Times,serif" font-size="14.00" fill="#000000">2h10</text>
</g>
<!-- Paris&#45;&#45;Toulouse -->
<g id="edge13" class="edge">
<title>Paris&#45;&#45;Toulouse</title>
<path fill="none" stroke="#000000" d="M285.0594,-358.018C289.7233,-352.0594 294.5893,-345.0287 298,-338 334.4575,-262.8698 351.7454,-163.3353 357.6005,-123.0598"/>
<text text-anchor="middle" x="350" y="-231.8" font-family="Times,serif" font-size="14.00" fill="#000000">5h14</text>
</g>
<!-- Paris&#45;&#45;Marseille -->
<g id="edge11" class="edge">
<title>Paris&#45;&#45;Marseille</title>
<path fill="none" stroke="#000000" d="M243.6137,-368.5256C194.3887,-358.0547 94.2738,-333.6643 75,-305 36.8201,-248.2183 60.3623,-160.3915 73.2418,-122.9249"/>
<text text-anchor="middle" x="69" y="-231.8" font-family="Times,serif" font-size="14.00" fill="#000000">2h56</text>
</g>
<!-- Paris&#45;&#45;Montpellier -->
<g id="edge12" class="edge">
<title>Paris&#45;&#45;Montpellier</title>
<path fill="none" stroke="#000000" d="M275.1133,-355.9794C278.9219,-337.6977 284,-308.5344 284,-283 284,-283 284,-283 284,-105 284,-79.2879 298.1108,-52.6061 309.1349,-35.6842"/>
<text text-anchor="middle" x="298" y="-188.3" font-family="Times,serif" font-size="14.00" fill="#000000">3h15</text>
</g>
<!-- Nantes&#45;&#45;Lyon -->
<g id="edge14" class="edge">
<title>Nantes&#45;&#45;Lyon</title>
<path fill="none" stroke="#000000" d="M122.6057,-265.0759C125.6661,-253.4797 131.0324,-238.6211 140,-228 149.6784,-216.5371 163.9859,-207.8237 176.3123,-201.8426"/>
<text text-anchor="middle" x="154" y="-231.8" font-family="Times,serif" font-size="14.00" fill="#000000">4h20</text>
</g>
<!-- Nantes&#45;&#45;Marseille -->
<g id="edge15" class="edge">
<title>Nantes&#45;&#45;Marseille</title>
<path fill="none" stroke="#000000" d="M115.0458,-264.9528C107.5709,-230.8365 91.4476,-157.2481 83.9646,-123.0949"/>
<text text-anchor="middle" x="117" y="-188.3" font-family="Times,serif" font-size="14.00" fill="#000000">6h20</text>
</g>
<!-- Lyon&#45;&#45;Toulouse -->
<g id="edge16" class="edge">
<title>Lyon&#45;&#45;Toulouse</title>
<path fill="none" stroke="#000000" d="M223.1083,-179.903C252.0351,-164.0752 302.6683,-136.3702 333.5827,-119.4548"/>
<text text-anchor="middle" x="304" y="-144.8" font-family="Times,serif" font-size="14.00" fill="#000000">4h30</text>
</g>
<!-- Lyon&#45;&#45;Marseille -->
<g id="edge17" class="edge">
<title>Lyon&#45;&#45;Marseille</title>
<path fill="none" stroke="#000000" d="M181.8272,-178.2146C160.1032,-162.5948 124.7615,-137.1839 101.9505,-120.7826"/>
<text text-anchor="middle" x="161" y="-144.8" font-family="Times,serif" font-size="14.00" fill="#000000">1h20</text>
</g>
<!-- Lyon&#45;&#45;Montpellier -->
<g id="edge18" class="edge">
<title>Lyon&#45;&#45;Montpellier</title>
<path fill="none" stroke="#000000" d="M206.0013,-174.0851C212.4673,-152.498 224.9543,-115.5697 242,-87 251.8553,-70.4819 255.7487,-66.918 270,-54 278.054,-46.6995 287.6554,-39.6616 296.4029,-33.7751"/>
<text text-anchor="middle" x="256" y="-101.3" font-family="Times,serif" font-size="14.00" fill="#000000">1h45</text>
</g>
<!-- Bordeaux&#45;&#45;Toulouse -->
<g id="edge19" class="edge">
<title>Bordeaux&#45;&#45;Toulouse</title>
<path fill="none" stroke="#000000" d="M396.4354,-260.5606C392.8921,-232.3127 385.5912,-182.4653 374,-141 372.3391,-135.0583 370.0638,-128.7378 367.8303,-123.0781"/>
<text text-anchor="middle" x="402" y="-188.3" font-family="Times,serif" font-size="14.00" fill="#000000">2h10</text>
</g>
<!-- Toulouse&#45;&#45;Montpellier -->
<g id="edge20" class="edge">
<title>Toulouse&#45;&#45;Montpellier</title>
<path fill="none" stroke="#000000" d="M352.1264,-86.9735C345.6046,-72.0422 336.3825,-50.9283 329.8635,-36.0034"/>
<text text-anchor="middle" x="357" y="-57.8" font-family="Times,serif" font-size="14.00" fill="#000000">2h16</text>
</g>
<!-- Strasbourg -->
<g id="node9" class="node">
<title>Strasbourg</title>
<ellipse fill="#ffffff" stroke="#000000" cx="365" cy="-461" rx="48.9926" ry="18"/>
<text text-anchor="middle" x="365" y="-457.3" font-family="Times,serif" font-size="14.00" fill="#000000">Strasbourg</text>
</g>
</g>
</svg>
