<?xml version="1.0" encoding="UTF-8" standalone="no"?>
<!DOCTYPE svg PUBLIC "-//W3C//DTD SVG 1.1//EN"
 "http://www.w3.org/Graphics/SVG/1.1/DTD/svg11.dtd">
<!-- Generated by graphviz version 2.40.1 (20161225.0304)
 -->
<!-- Title: Europe Pages: 1 -->
<svg width="1150pt" height="579pt"
 viewBox="0.00 0.00 1150.00 579.00" xmlns="http://www.w3.org/2000/svg" xmlns:xlink="http://www.w3.org/1999/xlink">
<g id="graph0" class="graph" transform="scale(1 1) rotate(0) translate(4 575)">
<title>Europe</title>
<polygon fill="#ffffff" stroke="transparent" points="-4,4 -4,-575 1146,-575 1146,4 -4,4"/>
<!-- Portugal -->
<g id="node1" class="node">
<title>Portugal</title>
<polygon fill="#ffffff" stroke="#000000" points="68,-189.4511 6,-189.4511 6,-153.4511 68,-153.4511 68,-189.4511"/>
<text text-anchor="middle" x="37" y="-167.7511" font-family="Times,serif" font-size="14.00" fill="#000000">Portugal</text>
</g>
<!-- Espagne -->
<g id="node2" class="node">
<title>Espagne</title>
<polygon fill="#ffffff" stroke="#000000" points="189,-189.4511 127,-189.4511 127,-153.4511 189,-153.4511 189,-189.4511"/>
<text text-anchor="middle" x="158" y="-167.7511" font-family="Times,serif" font-size="14.00" fill="#000000">Espagne</text>
</g>
<!-- Portugal&#45;&#45;Espagne -->
<g id="edge1" class="edge">
<title>Portugal&#45;&#45;Espagne</title>
<path fill="none" stroke="#000000" d="M68.1605,-171.4511C86.2263,-171.4511 108.8973,-171.4511 126.9451,-171.4511"/>
</g>
<!-- France -->
<g id="node3" class="node">
<title>France</title>
<polygon fill="#ffffff" stroke="#000000" points="301,-189.4511 247,-189.4511 247,-153.4511 301,-153.4511 301,-189.4511"/>
<text text-anchor="middle" x="274" y="-167.7511" font-family="Times,serif" font-size="14.00" fill="#000000">France</text>
</g>
<!-- Espagne&#45;&#45;France -->
<g id="edge2" class="edge">
<title>Espagne&#45;&#45;France</title>
<path fill="none" stroke="#000000" d="M189.0859,-171.4511C207.0715,-171.4511 229.4938,-171.4511 246.7803,-171.4511"/>
</g>
<!-- Belgique -->
<g id="node4" class="node">
<title>Belgique</title>
<polygon fill="#ffffff" stroke="#000000" points="406.5,-272.4511 341.5,-272.4511 341.5,-236.4511 406.5,-236.4511 406.5,-272.4511"/>
<text text-anchor="middle" x="374" y="-250.7511" font-family="Times,serif" font-size="14.00" fill="#000000">Belgique</text>
</g>
<!-- France&#45;&#45;Belgique -->
<g id="edge3" class="edge">
<title>France&#45;&#45;Belgique</title>
<path fill="none" stroke="#000000" d="M295.6985,-189.4609C312.357,-203.2874 335.2649,-222.301 351.9985,-236.1899"/>
</g>
<!-- Allemagne -->
<g id="node5" class="node">
<title>Allemagne</title>
<polygon fill="#ffffff" stroke="#000000" points="519.5,-230.4511 442.5,-230.4511 442.5,-194.4511 519.5,-194.4511 519.5,-230.4511"/>
<text text-anchor="middle" x="481" y="-208.7511" font-family="Times,serif" font-size="14.00" fill="#000000">Allemagne</text>
</g>
<!-- France&#45;&#45;Allemagne -->
<g id="edge4" class="edge">
<title>France&#45;&#45;Allemagne</title>
<path fill="none" stroke="#000000" d="M301.0616,-176.8111C337.1166,-183.9525 401.133,-196.632 442.2888,-204.7837"/>
</g>
<!-- Italie -->
<g id="node6" class="node">
<title>Italie</title>
<polygon fill="#ffffff" stroke="#000000" points="508,-64.4511 454,-64.4511 454,-28.4511 508,-28.4511 508,-64.4511"/>
<text text-anchor="middle" x="481" y="-42.7511" font-family="Times,serif" font-size="14.00" fill="#000000">Italie</text>
</g>
<!-- France&#45;&#45;Italie -->
<g id="edge5" class="edge">
<title>France&#45;&#45;Italie</title>
<path fill="none" stroke="#000000" d="M301.0616,-155.1095C340.733,-131.1534 414.2566,-86.7551 453.9317,-62.7967"/>
</g>
<!-- Belgique&#45;&#45;Allemagne -->
<g id="edge7" class="edge">
<title>Belgique&#45;&#45;Allemagne</title>
<path fill="none" stroke="#000000" d="M406.6849,-241.6215C417.8704,-237.231 430.494,-232.2759 442.1199,-227.7124"/>
</g>
<!-- Pays Bas -->
<g id="node7" class="node">
<title>Pays Bas</title>
<polygon fill="#ffffff" stroke="#000000" points="626,-410.4511 560,-410.4511 560,-374.4511 626,-374.4511 626,-410.4511"/>
<text text-anchor="middle" x="593" y="-388.7511" font-family="Times,serif" font-size="14.00" fill="#000000">Pays Bas</text>
</g>
<!-- Belgique&#45;&#45;Pays Bas -->
<g id="edge6" class="edge">
<title>Belgique&#45;&#45;Pays Bas</title>
<path fill="none" stroke="#000000" d="M402.6304,-272.4922C444.6016,-298.9398 522.3874,-347.9555 564.3625,-374.4056"/>
</g>
<!-- Allemagne&#45;&#45;Pays Bas -->
<g id="edge8" class="edge">
<title>Allemagne&#45;&#45;Pays Bas</title>
<path fill="none" stroke="#000000" d="M492.3555,-230.701C513.8776,-265.2901 560.3649,-340.0018 581.781,-374.4205"/>
</g>
<!-- Danemark -->
<g id="node8" class="node">
<title>Danemark</title>
<polygon fill="#ffffff" stroke="#000000" points="630,-147.4511 556,-147.4511 556,-111.4511 630,-111.4511 630,-147.4511"/>
<text text-anchor="middle" x="593" y="-125.7511" font-family="Times,serif" font-size="14.00" fill="#000000">Danemark</text>
</g>
<!-- Allemagne&#45;&#45;Danemark -->
<g id="edge9" class="edge">
<title>Allemagne&#45;&#45;Danemark</title>
<path fill="none" stroke="#000000" d="M505.3023,-194.4413C523.9598,-180.6148 549.6167,-161.6012 568.3583,-147.7123"/>
</g>
<!-- Pologne -->
<g id="node9" class="node">
<title>Pologne</title>
<polygon fill="#ffffff" stroke="#000000" points="623.5,-313.4511 562.5,-313.4511 562.5,-277.4511 623.5,-277.4511 623.5,-313.4511"/>
<text text-anchor="middle" x="593" y="-291.7511" font-family="Times,serif" font-size="14.00" fill="#000000">Pologne</text>
</g>
<!-- Allemagne&#45;&#45;Pologne -->
<g id="edge10" class="edge">
<title>Allemagne&#45;&#45;Pologne</title>
<path fill="none" stroke="#000000" d="M505.3023,-230.4609C523.9598,-244.2874 549.6167,-263.301 568.3583,-277.1899"/>
</g>
<!-- Autriche -->
<g id="node10" class="node">
<title>Autriche</title>
<polygon fill="#ffffff" stroke="#000000" points="625,-50.4511 561,-50.4511 561,-14.4511 625,-14.4511 625,-50.4511"/>
<text text-anchor="middle" x="593" y="-28.7511" font-family="Times,serif" font-size="14.00" fill="#000000">Autriche</text>
</g>
<!-- Allemagne&#45;&#45;Autriche -->
<g id="edge11" class="edge">
<title>Allemagne&#45;&#45;Autriche</title>
<path fill="none" stroke="#000000" d="M492.3555,-194.2012C513.8776,-159.6121 560.3649,-84.9004 581.781,-50.4817"/>
</g>
<!-- Tchequie -->
<g id="node11" class="node">
<title>Tchequie</title>
<polygon fill="#ffffff" stroke="#000000" points="732.5,-201.4511 665.5,-201.4511 665.5,-165.4511 732.5,-165.4511 732.5,-201.4511"/>
<text text-anchor="middle" x="699" y="-179.7511" font-family="Times,serif" font-size="14.00" fill="#000000">Tchequie</text>
</g>
<!-- Allemagne&#45;&#45;Tchequie -->
<g id="edge12" class="edge">
<title>Allemagne&#45;&#45;Tchequie</title>
<path fill="none" stroke="#000000" d="M519.7228,-207.2999C561.078,-201.7985 625.9615,-193.1672 665.2858,-187.936"/>
</g>
<!-- Italie&#45;&#45;Autriche -->
<g id="edge13" class="edge">
<title>Italie&#45;&#45;Autriche</title>
<path fill="none" stroke="#000000" d="M508.1121,-43.0621C524.038,-41.0713 544.2565,-38.544 560.9662,-36.4553"/>
</g>
<!-- Pologne&#45;&#45;Tchequie -->
<g id="edge14" class="edge">
<title>Pologne&#45;&#45;Tchequie</title>
<path fill="none" stroke="#000000" d="M610.5037,-276.9566C630.2614,-256.0805 662.1993,-222.3348 681.822,-201.6015"/>
</g>
<!-- Slovaquie -->
<g id="node12" class="node">
<title>Slovaquie</title>
<polygon fill="#ffffff" stroke="#000000" points="839.5,-201.4511 768.5,-201.4511 768.5,-165.4511 839.5,-165.4511 839.5,-201.4511"/>
<text text-anchor="middle" x="804" y="-179.7511" font-family="Times,serif" font-size="14.00" fill="#000000">Slovaquie</text>
</g>
<!-- Pologne&#45;&#45;Slovaquie -->
<g id="edge15" class="edge">
<title>Pologne&#45;&#45;Slovaquie</title>
<path fill="none" stroke="#000000" d="M623.6812,-279.1653C662.5424,-258.5376 729.3079,-223.0981 769.7803,-201.6151"/>
</g>
<!-- Ukraine -->
<g id="node13" class="node">
<title>Ukraine</title>
<polygon fill="#ffffff" stroke="#000000" points="936,-243.4511 876,-243.4511 876,-207.4511 936,-207.4511 936,-243.4511"/>
<text text-anchor="middle" x="906" y="-221.7511" font-family="Times,serif" font-size="14.00" fill="#000000">Ukraine</text>
</g>
<!-- Pologne&#45;&#45;Ukraine -->
<g id="edge16" class="edge">
<title>Pologne&#45;&#45;Ukraine</title>
<path fill="none" stroke="#000000" d="M623.5817,-288.6118C683.5738,-275.195 816.0351,-245.571 875.755,-232.2152"/>
</g>
<!-- Autriche&#45;&#45;Tchequie -->
<g id="edge17" class="edge">
<title>Autriche&#45;&#45;Tchequie</title>
<path fill="none" stroke="#000000" d="M605.7861,-50.6652C626.1598,-79.6881 665.7664,-136.1089 686.1686,-165.1724"/>
</g>
<!-- Autriche&#45;&#45;Slovaquie -->
<g id="edge18" class="edge">
<title>Autriche&#45;&#45;Slovaquie</title>
<path fill="none" stroke="#000000" d="M618.4515,-50.6652C659.1163,-79.7666 738.2728,-136.4141 778.7867,-165.4074"/>
</g>
<!-- Hongrie -->
<g id="node14" class="node">
<title>Hongrie</title>
<polygon fill="#ffffff" stroke="#000000" points="1032.5,-160.4511 971.5,-160.4511 971.5,-124.4511 1032.5,-124.4511 1032.5,-160.4511"/>
<text text-anchor="middle" x="1002" y="-138.7511" font-family="Times,serif" font-size="14.00" fill="#000000">Hongrie</text>
</g>
<!-- Autriche&#45;&#45;Hongrie -->
<g id="edge19" class="edge">
<title>Autriche&#45;&#45;Hongrie</title>
<path fill="none" stroke="#000000" d="M625.0935,-41.0826C702.0207,-61.7721 896.1212,-113.9751 971.4519,-134.2352"/>
</g>
<!-- Tchequie&#45;&#45;Slovaquie -->
<g id="edge20" class="edge">
<title>Tchequie&#45;&#45;Slovaquie</title>
<path fill="none" stroke="#000000" d="M732.5113,-183.4511C743.9147,-183.4511 756.6993,-183.4511 768.2698,-183.4511"/>
</g>
<!-- Slovaquie&#45;&#45;Ukraine -->
<g id="edge22" class="edge">
<title>Slovaquie&#45;&#45;Ukraine</title>
<path fill="none" stroke="#000000" d="M839.6747,-198.1407C851.5091,-203.0137 864.5573,-208.3865 875.9268,-213.068"/>
</g>
<!-- Slovaquie&#45;&#45;Hongrie -->
<g id="edge21" class="edge">
<title>Slovaquie&#45;&#45;Hongrie</title>
<path fill="none" stroke="#000000" d="M839.8563,-176.0263C877.4122,-168.2496 935.775,-156.1644 971.284,-148.8115"/>
</g>
<!-- Ukraine&#45;&#45;Hongrie -->
<g id="edge23" class="edge">
<title>Ukraine&#45;&#45;Hongrie</title>
<path fill="none" stroke="#000000" d="M926.8306,-207.4413C942.8227,-193.6148 964.8143,-174.6012 980.8786,-160.7123"/>
</g>
<!-- Roumanie -->
<g id="node15" class="node">
<title>Roumanie</title>
<polygon fill="#ffffff" stroke="#000000" points="1141.5,-201.4511 1068.5,-201.4511 1068.5,-165.4511 1141.5,-165.4511 1141.5,-201.4511"/>
<text text-anchor="middle" x="1105" y="-179.7511" font-family="Times,serif" font-size="14.00" fill="#000000">Roumanie</text>
</g>
<!-- Ukraine&#45;&#45;Roumanie -->
<g id="edge24" class="edge">
<title>Ukraine&#45;&#45;Roumanie</title>
<path fill="none" stroke="#000000" d="M936.2238,-219.0722C971.6697,-211.5912 1030.4012,-199.1956 1068.3953,-191.1767"/>
</g>
<!-- Hongrie&#45;&#45;Roumanie -->
<g id="edge25" class="edge">
<title>Hongrie&#45;&#45;Roumanie</title>
<path fill="none" stroke="#000000" d="M1032.6245,-154.6414C1043.8915,-159.1264 1056.7632,-164.25 1068.4969,-168.9208"/>
</g>
<!-- Angleterre -->
<g id="node16" class="node">
<title>Angleterre</title>
<polygon fill="#ffffff" stroke="#000000" points="74,-286.4511 0,-286.4511 0,-250.4511 74,-250.4511 74,-286.4511"/>
<text text-anchor="middle" x="37" y="-264.7511" font-family="Times,serif" font-size="14.00" fill="#000000">Angleterre</text>
</g>
<!-- Pays de Galles -->
<g id="node17" class="node">
<title>Pays de Galles</title>
<polygon fill="#ffffff" stroke="#000000" points="206.5,-383.4511 109.5,-383.4511 109.5,-347.4511 206.5,-347.4511 206.5,-383.4511"/>
<text text-anchor="middle" x="158" y="-361.7511" font-family="Times,serif" font-size="14.00" fill="#000000">Pays de Galles</text>
</g>
<!-- Angleterre&#45;&#45;Pays de Galles -->
<g id="edge26" class="edge">
<title>Angleterre&#45;&#45;Pays de Galles</title>
<path fill="none" stroke="#000000" d="M59.4756,-286.4687C81.0724,-303.7819 113.5406,-329.8101 135.2342,-347.2008"/>
</g>
<!-- Ecosse -->
<g id="node18" class="node">
<title>Ecosse</title>
<polygon fill="#ffffff" stroke="#000000" points="185,-286.4511 131,-286.4511 131,-250.4511 185,-250.4511 185,-286.4511"/>
<text text-anchor="middle" x="158" y="-264.7511" font-family="Times,serif" font-size="14.00" fill="#000000">Ecosse</text>
</g>
<!-- Angleterre&#45;&#45;Ecosse -->
<g id="edge27" class="edge">
<title>Angleterre&#45;&#45;Ecosse</title>
<path fill="none" stroke="#000000" d="M74.2913,-268.4511C92.4843,-268.4511 113.9775,-268.4511 130.6295,-268.4511"/>
</g>
<!-- Irlande -->
<g id="node19" class="node">
<title>Irlande</title>
<polygon fill="#ffffff" stroke="#000000" points="64.5,-421.4511 9.5,-421.4511 9.5,-385.4511 64.5,-385.4511 64.5,-421.4511"/>
<text text-anchor="middle" x="37" y="-399.7511" font-family="Times,serif" font-size="14.00" fill="#000000">Irlande</text>
</g>
<!-- Finlande -->
<g id="node20" class="node">
<title>Finlande</title>
<polygon fill="#ffffff" stroke="#000000" points="69,-536.4511 5,-536.4511 5,-500.4511 69,-500.4511 69,-536.4511"/>
<text text-anchor="middle" x="37" y="-514.7511" font-family="Times,serif" font-size="14.00" fill="#000000">Finlande</text>
</g>
<!-- Suede -->
<g id="node21" class="node">
<title>Suede</title>
<polygon fill="#ffffff" stroke="#000000" points="185,-556.4511 131,-556.4511 131,-520.4511 185,-520.4511 185,-556.4511"/>
<text text-anchor="middle" x="158" y="-534.7511" font-family="Times,serif" font-size="14.00" fill="#000000">Suede</text>
</g>
<!-- Finlande&#45;&#45;Suede -->
<g id="edge28" class="edge">
<title>Finlande&#45;&#45;Suede</title>
<path fill="none" stroke="#000000" d="M69.1081,-523.7582C88.2918,-526.9291 112.4009,-530.9141 130.6696,-533.9337"/>
</g>
<!-- Norvege -->
<g id="node22" class="node">
<title>Norvege</title>
<polygon fill="#ffffff" stroke="#000000" points="305.5,-515.4511 242.5,-515.4511 242.5,-479.4511 305.5,-479.4511 305.5,-515.4511"/>
<text text-anchor="middle" x="274" y="-493.7511" font-family="Times,serif" font-size="14.00" fill="#000000">Norvege</text>
</g>
<!-- Finlande&#45;&#45;Norvege -->
<g id="edge29" class="edge">
<title>Finlande&#45;&#45;Norvege</title>
<path fill="none" stroke="#000000" d="M69.1137,-515.2714C81.7042,-514.0455 96.2768,-512.6521 109.5,-511.4511 155.7425,-507.2511 209.3337,-502.7604 242.4549,-500.0288"/>
</g>
<!-- Suede&#45;&#45;Norvege -->
<g id="edge30" class="edge">
<title>Suede&#45;&#45;Norvege</title>
<path fill="none" stroke="#000000" d="M185.1968,-528.8384C202.3399,-522.7792 224.5407,-514.9324 242.4557,-508.6004"/>
</g>
</g>
</svg>
